# xmcd
#
# Track frame offsets:
#	150
#	12539
#	32481
#	53068
#	73102
#	101803
#	130126
#	145888
#	161566
#	186513
#	210013
#	238269
#	254164
#
# Disc length: 3589 seconds
#
# Revision: 1
# Processed by: cddbd v1.5PL3 Copyright (c) Steve Scherf et al.
# Submitted via: audiograbber 1.81.02
#
DISCID=c00e030d
DTITLE=Storman Norman - Live at the Yale
DYEAR=2003
DGENRE=Blues
TTITLE0=Ken Hamm and Dave Goodman - Crow Jane
TTITLE1=Jason Buie - San-Ho-Zay
TTITLE2=David Gogo - Things are about to Change
TTITLE3=Muddy Fraser - I Can't Believe
TTITLE4=Harpdog Brown - Nine Below Zero
TTITLE5=James Rogers - Wanna go Home
TTITLE6=Willie MacCalder - 1,2,3 Everybody
TTITLE7=Jody Williams - Lucky Lou
TTITLE8=Kenny "Blues Boss" Wayne - My Nadine
TTITLE9=Tim Williams - Drivin' Wheel
TTITLE10=Oliver and the Elements - Two Trains
TTITLE11=Mike Henry - Papa's Got a Brand New Bag
TTITLE12=Powder Blues - Cooking with the Blues
EXTD=Storman Norman's Sunday Blues Volume Two
EXTT0=
EXTT1=
EXTT2=
EXTT3=
EXTT4=
EXTT5=
EXTT6=
EXTT7=
EXTT8=
EXTT9=
EXTT10=
EXTT11=
EXTT12=
PLAYORDER=
